# OBJ generated by ONSHAPE BY PTC INC, 1.209 Units = meters
mtllib Final Assembly.mtl
g Block 2
v 0.0015964 0.0100211 -0.00165411 
v -0.0174536 0.0100211 -0.00165411 
v -0.0174536 0.0100211 0.0173959 
v 0.0015964 0.0100211 0.0173959 
v 0.0015964 -0.00902894 -0.00165411 
v -0.0174536 -0.00902894 -0.00165411 
v 0.0015964 0.0290711 0.0173959 
v -0.0174536 0.0290711 0.0173959 
v -0.0174536 0.0290711 0.0364459 
v 0.0015964 0.0290711 0.0364459 
v -0.0174536 0.0100211 0.0364459 
v -0.0174536 -0.00902894 0.0364459 
v 0.0015964 0.0100211 0.0364459 
v 0.0015964 -0.00902894 0.0554959 
v 0.0015964 0.0100211 0.0554959 
v -0.0365036 -0.00902894 0.0554959 
v -0.0365036 -0.00902894 0.0364459 
v -0.0365036 0.0100211 0.0554959 
v -0.0365036 0.0100211 0.0364459 
vn -2.498e-16 1 -9.10616e-17 
vn -2.77556e-17 -9.10616e-17 -1 
vn -1 -2.498e-16 -2.77556e-17 
vn 2.77556e-17 9.10616e-17 1 
vn 1 2.498e-16 2.77556e-17 
vn 2.498e-16 -1 9.10616e-17 
vn -2.498e-16 1 -9.10616e-17 
vn 2.77556e-17 9.10616e-17 1 
vn -2.77556e-17 -9.10616e-17 -1 
vn -1 -2.498e-16 -2.77556e-17 
usemtl 0.615686_0.811765_0.929412_0.000000_0.000000
o mesh0
f 1//1 2//1 3//1 
f 3//1 4//1 1//1 
o mesh1
f 1//2 5//2 6//2 
f 6//2 2//2 1//2 
o mesh2
f 7//2 4//2 3//2 
f 3//2 8//2 7//2 
o mesh3
f 7//1 8//1 9//1 
f 9//1 10//1 7//1 
o mesh4
f 8//3 3//3 11//3 
f 6//3 12//3 3//3 
f 3//3 12//3 11//3 
f 11//3 9//3 8//3 
f 3//3 2//3 6//3 
o mesh5
f 9//4 11//4 13//4 
f 13//4 10//4 9//4 
o mesh6
f 14//5 4//5 13//5 
f 10//5 13//5 4//5 
f 4//5 7//5 10//5 
f 5//5 1//5 4//5 
f 4//5 14//5 5//5 
f 13//5 15//5 14//5 
o mesh7
f 5//6 14//6 12//6 
f 16//6 17//6 12//6 
f 12//6 14//6 16//6 
f 12//6 6//6 5//6 
o mesh8
f 15//7 13//7 11//7 
f 11//7 18//7 15//7 
f 11//7 19//7 18//7 
o mesh9
f 18//8 16//8 14//8 
f 14//8 15//8 18//8 
o mesh10
f 19//9 11//9 12//9 
f 12//9 17//9 19//9 
o mesh11
f 16//10 18//10 19//10 
f 19//10 17//10 16//10 
g Block 1
v -0.0365036 0.0481211 0.0364459 
v -0.0365036 0.0481211 0.0554959 
v -0.0365036 0.0290711 0.0554959 
v -0.0365036 0.0290711 0.0364459 
v -0.0555536 0.0481211 0.0364459 
v -0.0555536 0.0481211 0.0554959 
v 0.0015964 0.0290711 0.0364459 
v 0.0015964 0.0290711 0.0554959 
v 0.0015964 0.0100211 0.0364459 
v 0.0015964 0.0100211 0.0554959 
v -0.0365036 0.0100211 0.0364459 
v -0.0555536 0.0100211 0.0364459 
v -0.0365036 0.0100211 0.0554959 
v -0.0555536 -0.00902894 0.0554959 
v -0.0365036 -0.00902894 0.0554959 
v -0.0555536 -0.00902894 0.0173959 
v -0.0555536 0.0100211 0.0173959 
v -0.0365036 -0.00902894 0.0173959 
v -0.0365036 0.0100211 0.0173959 
vn 1 2.498e-16 8.32667e-17 
vn -2.498e-16 1 -9.10616e-17 
vn -8.32667e-17 -9.10616e-17 -1 
vn 2.498e-16 -1 1.82123e-16 
vn 8.32667e-17 9.10616e-17 1 
vn -1 -2.498e-16 -8.32667e-17 
vn 1 2.498e-16 8.32667e-17 
vn 2.498e-16 -1 9.10616e-17 
vn -8.32667e-17 -9.10616e-17 -1 
vn -2.498e-16 1 -9.10616e-17 
usemtl 0.729412_0.250980_0.105882_0.000000_0.000000
o mesh12
f 20//11 21//11 22//11 
f 22//11 23//11 20//11 
o mesh13
f 20//12 24//12 25//12 
f 25//12 21//12 20//12 
o mesh14
f 26//12 23//12 22//12 
f 22//12 27//12 26//12 
o mesh15
f 28//11 26//11 27//11 
f 27//11 29//11 28//11 
o mesh16
f 28//13 30//13 23//13 
f 23//13 26//13 28//13 
f 24//13 20//13 23//13 
f 23//13 31//13 24//13 
f 30//13 31//13 23//13 
o mesh17
f 29//14 32//14 30//14 
f 30//14 28//14 29//14 
o mesh18
f 25//15 32//15 22//15 
f 27//15 22//15 32//15 
f 32//15 29//15 27//15 
f 33//15 34//15 32//15 
f 32//15 25//15 33//15 
f 22//15 21//15 25//15 
o mesh19
f 35//16 33//16 31//16 
f 25//16 24//16 31//16 
f 31//16 33//16 25//16 
f 31//16 36//16 35//16 
o mesh20
f 37//17 38//17 30//17 
f 30//17 34//17 37//17 
f 30//17 32//17 34//17 
o mesh21
f 34//18 33//18 35//18 
f 35//18 37//18 34//18 
o mesh22
f 37//19 35//19 36//19 
f 36//19 38//19 37//19 
o mesh23
f 38//20 36//20 31//20 
f 31//20 30//20 38//20 
g Block 3
v -0.0174536 0.0290711 0.0173959 
v -0.0174536 0.0290711 0.0364459 
v -0.0174536 0.0481211 0.0364459 
v -0.0174536 0.0481211 0.0173959 
v -0.0365036 0.0481211 0.0364459 
v -0.0365036 0.0290711 0.0364459 
v -0.0365036 0.0290711 0.0554959 
v -0.0365036 0.0481211 0.0554959 
v 0.0015964 0.0290711 0.0554959 
v 0.0015964 0.0481211 0.0554959 
v 0.0015964 0.0290711 0.0173959 
v 0.0015964 0.0481211 -0.00165411 
v -0.0365036 0.0481211 -0.00165411 
v -0.0365036 0.0481211 0.0173959 
v 0.0015964 0.0100211 -0.00165411 
v 0.0015964 0.0100211 0.0173959 
v -0.0174536 0.0100211 0.0173959 
v -0.0174536 0.0100211 -0.00165411 
v -0.0174536 0.0290711 -0.00165411 
v -0.0365036 0.0290711 -0.00165411 
v -0.0365036 0.0290711 0.0173959 
vn -1 0 0 
vn 0 0 -1 
vn 0 0 1 
vn 0 -1 0 
vn 0 1 0 
vn 1 0 0 
vn 0 0 1 
vn 0 -1 0 
vn 0 0 -1 
vn -1 0 0 
vn -9.10616e-17 -1 0 
vn 0 0 1 
usemtl 0.972549_0.529412_0.003922_0.000000_0.000000
o mesh24
f 39//21 40//21 41//21 
f 41//21 42//21 39//21 
o mesh25
f 43//22 41//22 40//22 
f 40//22 44//22 43//22 
o mesh26
f 45//21 46//21 43//21 
f 43//21 44//21 45//21 
o mesh27
f 46//23 45//23 47//23 
f 47//23 48//23 46//23 
o mesh28
f 49//24 47//24 40//24 
f 45//24 44//24 40//24 
f 40//24 47//24 45//24 
f 40//24 39//24 49//24 
o mesh29
f 46//25 48//25 41//25 
f 48//25 50//25 42//25 
f 42//25 41//25 48//25 
f 51//25 52//25 42//25 
f 42//25 50//25 51//25 
f 41//25 43//25 46//25 
o mesh30
f 53//26 50//26 49//26 
f 48//26 47//26 49//26 
f 49//26 50//26 48//26 
f 49//26 54//26 53//26 
o mesh31
f 55//27 54//27 49//27 
f 49//27 39//27 55//27 
o mesh32
f 55//28 56//28 53//28 
f 53//28 54//28 55//28 
o mesh33
f 51//29 50//29 57//29 
f 53//29 56//29 57//29 
f 57//29 50//29 53//29 
f 57//29 58//29 51//29 
o mesh34
f 52//30 51//30 58//30 
f 58//30 59//30 52//30 
o mesh35
f 59//31 58//31 57//31 
f 57//31 39//31 59//31 
o mesh36
f 39//30 57//30 56//30 
f 56//30 55//30 39//30 
o mesh37
f 59//32 39//32 42//32 
f 42//32 52//32 59//32 
g Block 5
v -0.0174536 0.0100211 0.0173959 
v -0.0174536 0.0100211 -0.00165411 
v -0.0365036 0.0100211 -0.00165411 
v -0.0365036 0.0100211 0.0173959 
v -0.0174536 -0.00902894 0.0173959 
v -0.0174536 -0.00902894 -0.00165411 
v -0.0555536 -0.00902894 0.0173959 
v -0.0555536 -0.00902894 -0.00165411 
v -0.0555536 0.0290711 0.0173959 
v -0.0365036 0.0290711 0.0173959 
v -0.0555536 0.0481211 -0.00165411 
v -0.0365036 0.0481211 -0.00165411 
v -0.0365036 0.0481211 0.0364459 
v -0.0365036 0.0290711 0.0364459 
v -0.0555536 0.0481211 0.0364459 
v -0.0555536 0.0290711 0.0364459 
vn -4.31923e-16 1 0 
vn 1 2.498e-16 0 
vn 2.498e-16 -1 0 
vn 0 0 1 
vn 0 0 -1 
vn 1 2.498e-16 0 
vn -1 -2.498e-16 0 
vn -2.498e-16 1 0 
vn 6.14047e-16 -1 0 
vn 0 0 1 
usemtl 0.062745_0.266667_0.490196_0.000000_0.000000
o mesh38
f 60//33 61//33 62//33 
f 62//33 63//33 60//33 
o mesh39
f 64//34 65//34 61//34 
f 61//34 60//34 64//34 
o mesh40
f 66//35 67//35 65//35 
f 65//35 64//35 66//35 
o mesh41
f 68//36 66//36 63//36 
f 64//36 60//36 63//36 
f 63//36 66//36 64//36 
f 63//36 69//36 68//36 
o mesh42
f 65//37 67//37 62//37 
f 70//37 71//37 62//37 
f 62//37 67//37 70//37 
f 62//37 61//37 65//37 
o mesh43
f 62//38 71//38 69//38 
f 72//38 73//38 69//38 
f 69//38 71//38 72//38 
f 69//38 63//38 62//38 
o mesh44
f 74//39 70//39 68//39 
f 67//39 66//39 68//39 
f 68//39 70//39 67//39 
f 68//39 75//39 74//39 
o mesh45
f 72//40 71//40 70//40 
f 70//40 74//40 72//40 
o mesh46
f 75//41 68//41 69//41 
f 69//41 73//41 75//41 
o mesh47
f 72//42 74//42 75//42 
f 75//42 73//42 72//42 
g Block 4
v -0.0365036 0.0481211 0.0364459 
v -0.0365036 0.0481211 0.0173959 
v -0.0365036 0.0290711 0.0173959 
v -0.0365036 0.0290711 0.0364459 
v -0.0174536 0.0481211 0.0364459 
v -0.0174536 0.0481211 0.0173959 
v -0.0174536 0.0290711 0.0173959 
v -0.0174536 0.0290711 -0.00165411 
v -0.0365036 0.0290711 -0.00165411 
v -0.0174536 0.0100211 -0.00165411 
v -0.0365036 0.0100211 -0.00165411 
v -0.0365036 0.0100211 0.0173959 
v -0.0174536 0.0100211 0.0173959 
v -0.0174536 -0.00902894 0.0364459 
v -0.0174536 -0.00902894 0.0173959 
v -0.0365036 -0.00902894 0.0173959 
v -0.0365036 -0.00902894 0.0364459 
v -0.0365036 0.0100211 0.0364459 
v -0.0555536 0.0100211 0.0364459 
v -0.0555536 0.0290711 0.0364459 
v -0.0555536 0.0290711 0.0173959 
v -0.0555536 0.0100211 0.0173959 
vn -1 -2.498e-16 -2.77556e-17 
vn -2.498e-16 1 -9.10616e-17 
vn -2.77556e-17 -9.10616e-17 -1 
vn -1 -2.498e-16 -2.77556e-17 
vn 2.498e-16 -1 9.10616e-17 
vn 1 2.498e-16 2.77556e-17 
vn -2.77556e-17 -9.10616e-17 -1 
vn 2.498e-16 -1 9.10616e-17 
vn -1 -2.498e-16 -2.77556e-17 
vn 2.77556e-17 9.10616e-17 1 
vn -2.77556e-17 -9.10616e-17 -1 
vn 2.498e-16 -1 9.10616e-17 
vn -2.498e-16 1 -9.10616e-17 
vn -1 -2.498e-16 -2.77556e-17 
usemtl 0.513725_0.737255_0.407843_0.000000_0.000000
o mesh48
f 76//43 77//43 78//43 
f 78//43 79//43 76//43 
o mesh49
f 76//44 80//44 81//44 
f 81//44 77//44 76//44 
o mesh50
f 77//45 81//45 82//45 
f 82//45 78//45 77//45 
o mesh51
f 78//44 82//44 83//44 
f 83//44 84//44 78//44 
o mesh52
f 84//45 83//45 85//45 
f 85//45 86//45 84//45 
o mesh53
f 84//46 86//46 87//46 
f 87//46 78//46 84//46 
o mesh54
f 86//47 85//47 88//47 
f 88//47 87//47 86//47 
o mesh55
f 80//48 88//48 82//48 
f 83//48 82//48 88//48 
f 88//48 85//48 83//48 
f 89//48 90//48 88//48 
f 88//48 80//48 89//48 
f 82//48 81//48 80//48 
o mesh56
f 87//49 88//49 90//49 
f 90//49 91//49 87//49 
o mesh57
f 91//50 90//50 89//50 
f 89//50 92//50 91//50 
o mesh58
f 92//51 93//51 87//51 
f 87//51 91//51 92//51 
o mesh59
f 89//52 79//52 93//52 
f 94//52 93//52 79//52 
f 79//52 95//52 94//52 
f 80//52 76//52 79//52 
f 79//52 89//52 80//52 
f 93//52 92//52 89//52 
o mesh60
f 96//53 78//53 87//53 
f 87//53 97//53 96//53 
o mesh61
f 97//54 87//54 93//54 
f 93//54 94//54 97//54 
o mesh62
f 95//55 79//55 78//55 
f 78//55 96//55 95//55 
o mesh63
f 95//56 96//56 97//56 
f 97//56 94//56 95//56 
